<svg width="20" height="18" viewBox="0 0 20 18" fill="none" xmlns="http://www.w3.org/2000/svg">
<path d="M0.418665 7.56583C-0.139371 8.12387 -0.139371 9.03012 0.418665 9.58815L7.56152 16.731C8.11956 17.289 9.02581 17.289 9.58384 16.731C10.1419 16.173 10.1419 15.2667 9.58384 14.7087L4.87402 10.0033L18.5705 10.0033C19.3606 10.0033 19.999 9.36494 19.999 8.57476C19.999 7.78458 19.3606 7.14619 18.5705 7.14619L4.87849 7.14619L9.57938 2.44083C10.1374 1.8828 10.1374 0.976544 9.57938 0.418509C9.02134 -0.139527 8.11509 -0.139527 7.55706 0.418509L0.4142 7.56137L0.418665 7.56583Z" fill="#291953"/>
</svg>
