<svg width="30" height="31" viewBox="0 0 30 31" fill="none" xmlns="http://www.w3.org/2000/svg">
<path d="M2.8125 4.25C1.25977 4.25 0 5.50977 0 7.0625C0 7.94727 0.416016 8.7793 1.125 9.3125L13.875 18.875C14.543 19.373 15.457 19.373 16.125 18.875L28.875 9.3125C29.584 8.7793 30 7.94727 30 7.0625C30 5.50977 28.7402 4.25 27.1875 4.25H2.8125ZM0 10.8125V23C0 25.0684 1.68164 26.75 3.75 26.75H26.25C28.3184 26.75 30 25.0684 30 23V10.8125L17.25 20.375C15.9141 21.377 14.0859 21.377 12.75 20.375L0 10.8125Z" fill="#FDDB3A"/>
</svg>
