<svg width="30" height="31" viewBox="0 0 30 31" fill="none" xmlns="http://www.w3.org/2000/svg">
<g clip-path="url(#clip0_166_916)">
<path d="M9.66211 1.94151C9.21094 0.851663 8.02148 0.271585 6.88477 0.582132L1.72852 1.98838C0.708984 2.26963 0 3.19541 0 4.2501C0 18.7462 11.7539 30.5001 26.25 30.5001C27.3047 30.5001 28.2305 29.7911 28.5117 28.7716L29.918 23.6153C30.2285 22.4786 29.6484 21.2892 28.5586 20.838L22.9336 18.4942C21.9785 18.0958 20.8711 18.3712 20.2207 19.1739L17.8535 22.0626C13.7285 20.1114 10.3887 16.7716 8.4375 12.6466L11.3262 10.2853C12.1289 9.62901 12.4043 8.52744 12.0059 7.57237L9.66211 1.94737V1.94151Z" fill="#FDDB3A"/>
</g>
<defs>
<clipPath id="clip0_166_916">
<rect width="30" height="30" fill="white" transform="translate(0 0.5)"/>
</clipPath>
</defs>
</svg>
