<svg width="250" height="251" viewBox="0 0 250 251" fill="none" xmlns="http://www.w3.org/2000/svg">
<g clip-path="url(#clip0_59_280)">
<path d="M250 47.9844C240.703 52.0625 230.797 54.7656 220.469 56.0781C231.094 49.7344 239.203 39.7656 243.016 27.75C233.109 33.6562 222.172 37.8281 210.516 40.1563C201.109 30.1406 187.703 23.9375 173.078 23.9375C144.703 23.9375 121.859 46.9688 121.859 75.2031C121.859 79.2656 122.203 83.1719 123.047 86.8906C80.4375 84.8125 42.7344 64.3906 17.4062 33.2813C12.9844 40.9531 10.3906 49.7344 10.3906 59.1875C10.3906 76.9375 19.5312 92.6719 33.1562 101.781C24.9219 101.625 16.8437 99.2344 10 95.4688C10 95.625 10 95.8281 10 96.0312C10 120.937 27.7656 141.625 51.0625 146.391C46.8906 147.531 42.3437 148.078 37.625 148.078C34.3437 148.078 31.0312 147.891 27.9219 147.203C34.5625 167.5 53.4063 182.422 75.8125 182.906C58.375 196.547 36.2344 204.766 12.2656 204.766C8.0625 204.766 4.03125 204.578 0 204.062C22.7031 218.703 49.6094 227.062 78.625 227.062C172.937 227.062 224.5 148.938 224.5 81.2187C224.5 78.9531 224.422 76.7656 224.312 74.5938C234.484 67.375 243.031 58.3594 250 47.9844Z" fill="#291953"/>
</g>
<defs>
<clipPath id="clip0_59_280">
<rect width="250" height="250" fill="white" transform="translate(0 0.5)"/>
</clipPath>
</defs>
</svg>
